<?xml version="1.0" encoding="UTF-8"?>
<svg id="Camada_2" data-name="Camada 2" xmlns="http://www.w3.org/2000/svg" viewBox="0 0 325.15 450.23">
  <defs>
    <style>
      .cls-1 {
        fill: none;
      }
    </style>
  </defs>
  <g id="Camada_1-2" data-name="Camada 1">
    <path d="M322.15,292H98.15c.02,28.52,10.5,54.04,35.08,69.42,36.02,22.52,94.63,16.36,134.94,9.11,17.3-3.11,34.03-8.08,50.98-12.52v73c-21.83,6.33-44.06,11.77-66.64,14.86-75.22,10.29-178.48,7.24-224.39-63.33-36.33-55.84-37.18-159.77-4.14-217.2,35.51-61.73,107.1-76.37,173.66-70.32,97.38,8.84,126.79,69.21,127.51,160.49l-3,36.5ZM234.15,241c-1.25-22.93-.32-53.68-20.67-68.83-18.72-13.94-56.33-14.08-77.01-4.36-28.06,13.19-35.52,44.72-37.31,73.19h135Z"/>
    <rect class="cls-1" x="0" width="325.13" height="448.95" transform="translate(325.15 448.95) rotate(180)"/>
  </g>
</svg>